# File produced by Open Asset Import Library (http://www.assimp.sf.net)
# (assimp v3.2.202087883)

mtllib model_normalized.mtl

# 150 vertex positions
v -0.208419 -0.327526 -0.231986
v 0.192459 -0.247175 -0.231986
v 0.192459 -0.327526 -0.231986
v -0.208419 -0.247175 -0.231986
v 0.192459 -0.247175 -0.225164
v 0.192459 -0.265657 -0.174238
v -0.208419 -0.327526 0.195884
v 0.192459 -0.327526 0.195884
v -0.208419 -0.265657 -0.174238
v -0.208419 -0.247175 -0.225164
v -0.208419 -0.263010 0.151052
v -0.208419 -0.227526 0.161283
v -0.208419 -0.105425 0.182359
v -0.208419 -0.134546 0.227071
v -0.208419 -0.304545 0.223600
v -0.208419 -0.277001 0.244374
v -0.208419 -0.171738 0.253023
v -0.208419 -0.247002 0.257348
v -0.208419 -0.216650 0.261672
v -0.208419 -0.105776 -0.126724
v -0.208419 -0.005512 -0.120146
v -0.208419 0.024400 -0.126235
v -0.208419 -0.123670 -0.059473
v -0.208419 -0.028583 -0.101870
v -0.208419 -0.045601 -0.072020
v -0.208419 -0.057353 -0.031210
v -0.208419 -0.135950 0.010213
v -0.208419 -0.070864 0.043840
v -0.208419 -0.147528 0.071614
v -0.208419 -0.084722 0.117424
v -0.208419 -0.159546 0.112064
v -0.208419 -0.176654 0.139843
v -0.208419 -0.199196 0.155923
v -0.208419 -0.010307 -0.217530
v -0.208419 0.015204 -0.217598
v -0.208419 0.002444 -0.218283
v -0.208419 0.027880 -0.215478
v -0.208419 -0.022979 -0.215344
v -0.208419 0.040387 -0.211938
v -0.208419 -0.035481 -0.211738
v -0.208419 0.052650 -0.207002
v -0.208419 -0.047726 -0.206736
v -0.208419 0.064583 -0.200701
v -0.208419 -0.058628 -0.199275
v -0.208419 0.076113 -0.193077
v -0.208419 -0.077353 -0.179355
v -0.208419 0.087157 -0.184181
v -0.208419 0.097646 -0.174070
v -0.208419 -0.093234 -0.154747
v -0.208419 0.102309 -0.164253
v -0.208419 0.106584 -0.154102
v -0.208419 0.110464 -0.143644
v -0.208419 0.113931 -0.132915
v -0.208419 0.116980 -0.121942
v -0.208419 0.057685 -0.115879
v -0.208419 0.119598 -0.110755
v -0.208419 0.071019 -0.100061
v -0.208419 0.121780 -0.099390
v -0.208419 0.071019 0.186626
v -0.208419 0.123518 -0.087879
v -0.208419 0.123518 0.156896
v -0.208419 0.442552 0.156896
v -0.208419 0.442552 0.261632
v -0.208419 0.049663 0.226098
v -0.208419 0.049663 0.233409
v 0.194105 -0.288719 -0.118395
v 0.195660 -0.309995 -0.003268
v 0.192459 -0.304545 0.223600
v 0.192459 0.102309 -0.164253
v 0.192459 0.097646 -0.174070
v 0.192459 0.087157 -0.184181
v 0.192459 0.076113 -0.193077
v 0.192459 0.064583 -0.200701
v 0.192459 0.052650 -0.207002
v 0.192459 0.040387 -0.211938
v 0.192459 0.027880 -0.215478
v 0.192459 0.015204 -0.217598
v 0.192459 0.002444 -0.218283
v 0.192459 -0.010307 -0.217530
v 0.192459 -0.022979 -0.215344
v 0.192459 -0.035481 -0.211738
v 0.192459 -0.047726 -0.206736
v 0.192459 -0.058628 -0.199275
v 0.192459 -0.077353 -0.179355
v 0.192459 -0.093234 -0.154747
v 0.192459 -0.105776 -0.126724
v 0.192459 -0.123670 -0.059473
v 0.192459 -0.135950 0.010213
v 0.192459 -0.147528 0.071614
v 0.192459 -0.159546 0.112064
v 0.192459 -0.176654 0.139843
v 0.192459 -0.199196 0.155923
v 0.192459 -0.227526 0.161283
v 0.192459 -0.263010 0.151052
v 0.192459 -0.277001 0.244374
v 0.192459 -0.247002 0.257348
v 0.192459 -0.216650 0.261672
v 0.192459 -0.171738 0.253023
v 0.192459 -0.134546 0.227071
v 0.192459 -0.105425 0.182359
v 0.192459 -0.084722 0.117424
v 0.192459 -0.070864 0.043840
v 0.192459 -0.057353 -0.031210
v 0.192459 -0.045601 -0.072020
v 0.192459 -0.028583 -0.101870
v 0.192459 -0.005512 -0.120146
v 0.192459 0.024400 -0.126235
v 0.192459 0.057685 -0.115879
v 0.192459 0.071019 -0.100061
v 0.192459 0.071019 0.186626
v 0.192459 0.049663 0.226098
v 0.192459 0.049663 0.233409
v 0.192459 0.442552 0.261632
v 0.028921 0.442552 0.236356
v 0.065207 0.442552 0.229231
v 0.100273 0.442552 0.217493
v 0.133533 0.442552 0.201333
v 0.164433 0.442552 0.181021
v 0.192459 0.442552 0.156896
v -0.007980 0.442552 0.238743
v -0.044882 0.442552 0.236356
v -0.081167 0.442552 0.229231
v -0.116233 0.442552 0.217493
v -0.149493 0.442552 0.201333
v -0.180394 0.442552 0.181021
v -0.185957 0.123518 -0.087879
v -0.175556 0.123518 0.149163
v 0.192459 0.121780 -0.099390
v 0.149450 0.123518 -0.087879
v 0.192459 0.123518 -0.087879
v 0.192459 0.119598 -0.110755
v 0.192459 0.116980 -0.121942
v 0.192459 0.113931 -0.132915
v 0.192459 0.110464 -0.143644
v 0.192459 0.106584 -0.154102
v 0.195194 -0.303805 -0.060002
v 0.195434 -0.306190 0.067103
v 0.194986 -0.299570 0.095264
v 0.194316 -0.289805 0.118749
v 0.192459 0.123518 0.156896
v 0.093041 0.123518 0.137869
v 0.059466 0.123518 0.134331
v 0.025773 0.123518 0.132202
v -0.041733 0.123518 0.132202
v -0.075427 0.123518 0.134331
v -0.109001 0.123518 0.137869
v -0.142397 0.123518 0.142816
v 0.159596 0.123518 0.149163
v 0.126437 0.123518 0.142816
v -0.007980 0.123518 0.131496

# 0 UV coordinates

# 108 vertex normals
vn 0 0 -0.171704
vn 0.171704 -1.25518e-19 3.01432e-18
vn 0.171696 -0.000522405 -0.00157207
vn 0.171661 0.00325448 -0.00202633
vn -6.57426e-18 -0.16152 0.0582544
vn -1.23687e-17 -0.171704 1.15884e-17
vn -0.171704 6.95774e-17 -1.05015e-17
vn 6.18433e-17 0.171704 -3.63379e-15
vn 1.20297e-16 0.16911 0.0297346
vn 1.13432e-16 0.169229 0.0290464
vn 0.171569 0.00660963 -0.00164583
vn 0.17164 -0.00402398 0.00240479
vn 0.171441 -0.00950023 -4.22032e-05
vn 0 -0.118581 0.124181
vn -3.03677e-16 0.139382 -0.100274
vn -4.30291e-16 0.156699 -0.0701964
vn -6.83875e-17 0.113552 -0.128795
vn 6.47941e-17 0.101328 -0.138618
vn 7.30748e-17 0.0875507 -0.147706
vn 8.1029e-17 0.0722417 -0.155767
vn 8.84395e-17 0.0555152 -0.162482
vn 9.50723e-17 0.0375909 -0.167539
vn 1.007e-16 0.0187962 -0.170672
vn 1.05132e-16 -0.000453048 -0.171703
vn 1.08238e-16 -0.0196912 -0.170571
vn 1.09968e-16 -0.0384537 -0.167343
vn 1.03037e-16 -0.0563284 -0.162202
vn 6.93762e-17 -0.0814146 -0.151175
vn 2.13805e-17 -0.111699 -0.130405
vn -0 -0.135247 -0.105785
vn -0 -0.150937 -0.0818561
vn -0 -0.161847 -0.0573388
vn -0 -0.167668 -0.0370094
vn -0 -0.168917 -0.030809
vn -0 -0.16688 -0.0404128
vn -0 -0.156755 -0.0700729
vn -0 -0.125452 -0.117235
vn -0 -0.0673881 -0.157928
vn -3.39445e-17 0.00805107 -0.171515
vn -6.60405e-17 0.0475836 -0.164979
vn 4.81587e-17 0.171698 -0.00139697
vn 0 -0.0863845 0.148391
vn 0 -0.0466058 0.165258
vn 0 0.00418241 0.171653
vn 0 0.0668223 0.158168
vn 0 0.123333 0.119462
vn 0 0.155132 0.0735955
vn 0 0.166477 0.0420456
vn 0 0.168864 0.0310995
vn 0 0.167212 0.0390196
vn 0 0.158198 0.0667518
vn 0 0.130268 0.111859
vn 0 0.0724227 0.155683
vn 0 -0.00864081 0.171486
vn -1.08274e-19 -0.0949634 0.143053
vn -1.10637e-19 -0.161285 0.0589022
vn -2.80448e-34 -0.166451 -0.0421469
vn -0 -0.166451 -0.0421469
vn 0 -0.171704 0
vn 2.16054e-19 -0.0123025 0.171263
vn 3.00559e-17 0.171704 6.7748e-17
vn 0.0992494 0.00863155 -0.139847
vn -0.0291896 0.0153065 -0.168511
vn 0.112018 -4.03356e-16 -0.130132
vn -1.01208e-16 0.171222 -0.0128596
vn 2.72728e-16 0.171704 -4.64295e-17
vn -1.67657e-17 0.171222 -0.0128596
vn -3.44415e-16 0.169235 -0.0290163
vn -3.22024e-16 0.171222 -0.0128596
vn -4.6091e-16 0.171222 -0.0128596
vn -3.90778e-16 0.167938 -0.0357641
vn -4.06923e-16 0.166348 -0.0425529
vn -4.22661e-16 0.164448 -0.0493879
vn -4.37969e-16 0.162221 -0.0562727
vn -4.52818e-16 0.159646 -0.0632091
vn 0.171556 0.0070916 0.000769363
vn 0.171668 0.00333298 -0.00114568
vn 0.170039 -0.0237743 0.00192559
vn 0.17163 0.00477372 0.00162541
vn 0.171423 0.00978149 0.000900467
vn 0.171652 -0.00287519 0.0031079
vn 0.171704 -3.28441e-17 -9.19858e-18
vn 0.171701 0.000334903 0.00103687
vn -0.0601887 0.0359376 -0.156742
vn 0.0183119 0.0445573 -0.164808
vn -0.0398582 0.0452251 -0.160774
vn 0.0122255 0.0507432 -0.163579
vn -0.0196188 0.0512719 -0.162692
vn 0.00631574 0.0538823 -0.162908
vn 3.84882e-17 0.0534667 -0.163167
vn -0.00631574 0.0538823 -0.162908
vn 0.0196188 0.0512719 -0.162692
vn -0.0122255 0.0507432 -0.163579
vn 0.0398582 0.0452251 -0.160774
vn 0.0601887 0.0359376 -0.156742
vn -0.0183119 0.0445573 -0.164808
vn -0.0246325 0.0352541 -0.166231
vn 0.0802268 0.0235696 -0.149968
vn -0.0311742 0.0228637 -0.167295
vn -0.112018 -1.99649e-16 -0.130132
vn 0.0291896 0.0153065 -0.168511
vn -0.0992494 0.00863155 -0.139847
vn 0.0311742 0.0228637 -0.167295
vn -0.0802268 0.0235696 -0.149968
vn 0.0246325 0.0352541 -0.166231
vn -7.37664e-17 0.171704 9.04831e-17
vn -6.13066e-16 0.171704 3.43381e-16
vn 3.86278e-16 0.0547121 -0.162754

# Mesh 'S_ID4' with 296 faces
g S_ID4
usemtl material
f  1//1 2//1 3//1
f  2//1 1//1 4//1
f  5//2 3//3 2//2
f  3//3 5//2 6//4
f  7//5 3//6 8//5
f  3//6 7//5 1//6
f  1//7 9//7 4//7
f  9//7 1//7 7//7
f  4//7 9//7 10//7
f  9//7 7//7 11//7
f  11//7 7//7 12//7
f  12//7 7//7 13//7
f  13//7 7//7 14//7
f  14//7 7//7 15//7
f  14//7 15//7 16//7
f  14//7 16//7 17//7
f  17//7 16//7 18//7
f  17//7 18//7 19//7
f  20//7 21//7 22//7
f  21//7 20//7 23//7
f  21//7 23//7 24//7
f  24//7 23//7 25//7
f  25//7 23//7 26//7
f  26//7 23//7 27//7
f  26//7 27//7 28//7
f  28//7 27//7 29//7
f  28//7 29//7 30//7
f  30//7 29//7 31//7
f  30//7 31//7 32//7
f  30//7 32//7 13//7
f  13//7 32//7 33//7
f  13//7 33//7 12//7
f  34//7 35//7 36//7
f  35//7 34//7 37//7
f  37//7 34//7 38//7
f  37//7 38//7 39//7
f  39//7 38//7 40//7
f  39//7 40//7 41//7
f  41//7 40//7 42//7
f  41//7 42//7 43//7
f  43//7 42//7 44//7
f  43//7 44//7 45//7
f  45//7 44//7 46//7
f  45//7 46//7 47//7
f  47//7 46//7 48//7
f  48//7 46//7 49//7
f  48//7 49//7 50//7
f  50//7 49//7 51//7
f  51//7 49//7 20//7
f  51//7 20//7 52//7
f  52//7 20//7 53//7
f  53//7 20//7 22//7
f  53//7 22//7 54//7
f  54//7 22//7 55//7
f  54//7 55//7 56//7
f  56//7 55//7 57//7
f  56//7 57//7 58//7
f  58//7 57//7 59//7
f  58//7 59//7 60//7
f  60//7 59//7 61//7
f  61//7 59//7 62//7
f  62//7 59//7 63//7
f  63//7 59//7 64//7
f  63//7 64//7 65//7
f  4//8 5//9 2//8
f  5//9 4//8 10//9
f  10//9 6//10 5//9
f  6//10 10//9 9//10
f  66//11 3//3 6//4
f  8//12 3//3 67//13
f  15//14 8//5 68//14
f  8//5 15//14 7//5
f  48//15 69//16 70//15
f  69//16 48//15 50//16
f  48//15 71//17 47//17
f  71//17 48//15 70//15
f  47//17 72//18 45//18
f  72//18 47//17 71//17
f  45//18 73//19 43//19
f  73//19 45//18 72//18
f  43//19 74//20 41//20
f  74//20 43//19 73//19
f  41//20 75//21 39//21
f  75//21 41//20 74//20
f  39//21 76//22 37//22
f  76//22 39//21 75//21
f  37//22 77//23 35//23
f  77//23 37//22 76//22
f  35//23 78//24 36//24
f  78//24 35//23 77//23
f  36//24 79//25 34//25
f  79//25 36//24 78//24
f  34//25 80//26 38//26
f  80//26 34//25 79//25
f  38//26 81//27 40//27
f  81//27 38//26 80//26
f  40//27 82//28 42//28
f  82//28 40//27 81//27
f  42//28 83//29 44//29
f  83//29 42//28 82//28
f  46//30 83//29 84//30
f  83//29 46//30 44//29
f  49//31 84//30 85//31
f  84//30 49//31 46//30
f  20//32 85//31 86//32
f  85//31 20//32 49//31
f  23//33 86//32 87//33
f  86//32 23//33 20//32
f  27//34 87//33 88//34
f  87//33 27//34 23//33
f  29//35 88//34 89//35
f  88//34 29//35 27//34
f  31//36 89//35 90//36
f  89//35 31//36 29//35
f  32//37 90//36 91//37
f  90//36 32//37 31//36
f  32//37 92//38 33//38
f  92//38 32//37 91//37
f  33//38 93//39 12//39
f  93//39 33//38 92//38
f  12//39 94//40 11//40
f  94//40 12//39 93//39
f  9//10 94//41 6//10
f  94//41 9//10 11//41
f  95//42 15//14 68//14
f  15//14 95//42 16//42
f  96//43 16//42 95//42
f  16//42 96//43 18//43
f  97//44 18//43 96//43
f  18//43 97//44 19//44
f  98//45 19//44 97//44
f  19//44 98//45 17//45
f  99//46 17//45 98//45
f  17//45 99//46 14//46
f  13//47 99//46 100//47
f  99//46 13//47 14//46
f  30//48 100//47 101//48
f  100//47 30//48 13//47
f  28//49 101//48 102//49
f  101//48 28//49 30//48
f  26//50 102//49 103//50
f  102//49 26//50 28//49
f  25//51 103//50 104//51
f  103//50 25//51 26//50
f  24//52 104//51 105//52
f  104//51 24//52 25//51
f  106//53 24//52 105//52
f  24//52 106//53 21//53
f  107//54 21//53 106//53
f  21//53 107//54 22//54
f  108//55 22//54 107//54
f  22//54 108//55 55//55
f  57//56 108//55 109//56
f  108//55 57//56 55//55
f  110//57 57//56 109//56
f  57//56 110//57 59//57
f  64//58 110//57 111//58
f  110//57 64//58 59//57
f  65//59 111//58 112//59
f  111//58 65//59 64//58
f  113//60 65//60 112//60
f  65//60 113//60 63//60
f  113//61 114//61 63//61
f  114//61 113//61 115//61
f  115//61 113//61 116//61
f  116//61 113//61 117//61
f  117//61 113//61 118//61
f  118//61 113//61 119//61
f  63//61 114//61 120//61
f  63//61 120//61 121//61
f  63//61 121//61 122//61
f  63//61 122//61 123//61
f  63//61 123//61 124//61
f  63//61 124//61 125//61
f  63//61 125//61 62//61
f  125//62 61//63 62//64
f  126//65 61//66 127//66
f  61//66 126//65 60//67
f  128//68 129//69 130//70
f  129//69 128//68 58//68
f  129//69 58//68 126//65
f  126//65 58//68 60//67
f  131//71 58//68 128//68
f  58//68 131//71 56//71
f  54//72 131//71 132//72
f  131//71 54//72 56//71
f  133//73 54//72 132//72
f  54//72 133//73 53//73
f  52//74 133//73 134//74
f  133//73 52//74 53//73
f  51//75 134//74 135//75
f  134//74 51//75 52//74
f  50//16 135//75 69//16
f  135//75 50//16 51//75
f  94//76 66//11 6//4
f  66//11 94//76 136//77
f  136//77 94//76 67//13
f  67//13 94//76 137//78
f  137//78 94//76 138//79
f  138//79 94//76 139//80
f  136//77 3//3 66//11
f  67//13 3//3 136//77
f  68//81 8//12 67//13
f  77//82 79//82 78//82
f  79//82 77//82 76//82
f  79//82 76//82 80//82
f  80//82 76//82 75//82
f  80//82 75//82 81//82
f  81//82 75//82 74//82
f  81//82 74//82 82//82
f  82//82 74//82 73//82
f  82//82 73//82 83//82
f  83//82 73//82 72//82
f  83//82 72//82 84//82
f  84//82 72//82 71//82
f  84//82 71//82 70//82
f  84//82 70//82 85//82
f  85//82 70//82 69//82
f  85//82 69//82 135//82
f  85//82 135//82 86//82
f  86//82 135//82 134//82
f  86//82 134//82 133//82
f  86//82 133//82 107//82
f  107//82 133//82 132//82
f  107//82 132//82 108//82
f  108//82 132//82 131//82
f  108//82 131//82 109//82
f  109//82 131//82 128//82
f  109//82 128//82 110//82
f  110//82 128//82 130//82
f  110//82 130//82 140//82
f  110//82 140//82 119//82
f  110//82 119//82 113//82
f  110//82 113//82 111//82
f  111//82 113//82 112//82
f  86//82 106//82 87//82
f  106//82 86//82 107//82
f  87//82 106//82 105//82
f  87//82 105//82 104//82
f  87//82 104//82 103//82
f  87//82 103//82 88//82
f  88//82 103//82 102//82
f  88//82 102//82 89//82
f  89//82 102//82 101//82
f  89//82 101//82 90//82
f  90//82 101//82 91//82
f  91//82 101//82 100//82
f  91//82 100//82 92//82
f  92//82 100//82 93//82
f  93//82 95//83 94//76
f  95//83 93//82 100//82
f  95//83 100//82 99//82
f  95//83 99//82 98//82
f  95//83 98//82 96//82
f  96//82 98//82 97//82
f  138//79 68//81 137//78
f  68//81 138//79 95//83
f  116//84 141//85 115//86
f  115//86 142//87 114//88
f  114//88 143//89 120//90
f  120//90 144//91 121//92
f  121//92 145//93 122//94
f  123//95 122//94 146//96
f  123//95 147//97 124//98
f  124//98 127//99 125//62
f  119//100 140//101 118//102
f  118//102 148//103 117//104
f  117//104 149//105 116//84
f  125//62 127//99 61//63
f  129//69 149//106 148//106
f  149//106 129//69 126//65
f  149//106 126//65 141//106
f  141//106 126//65 142//106
f  142//106 126//65 143//106
f  143//106 126//65 150//106
f  150//106 126//65 144//106
f  144//106 126//65 145//106
f  145//106 126//65 146//106
f  146//106 126//65 147//106
f  147//106 126//65 127//106
f  129//69 140//107 130//70
f  140//107 129//69 148//107
f  95//83 139//80 94//76
f  95//83 138//79 139//80
f  68//81 67//13 137//78
f  116//84 149//105 141//85
f  115//86 141//85 142//87
f  114//88 142//87 143//89
f  120//90 143//89 150//108
f  120//90 150//108 144//91
f  121//92 144//91 145//93
f  122//94 145//93 146//96
f  123//95 146//96 147//97
f  124//98 147//97 127//99
f  118//102 140//101 148//103
f  117//104 148//103 149//105

